<?xml version="1.0" encoding="utf-8"?>
<!DOCTYPE svg PUBLIC "-//W3C//DTD SVG 1.1//EN" "http://www.w3.org/Graphics/SVG/1.1/DTD/svg11.dtd">
<svg version="1.1" id="Layer_1" xmlns="http://www.w3.org/2000/svg" xmlns:xlink="http://www.w3.org/1999/xlink" x="0px" y="0px"
	 width="48px" height="32px" viewBox="0 0 32 32" enable-background="new 0 0 32 32" xml:space="preserve">
<path fill-rule="evenodd" clip-rule="evenodd" fill="#FFFFFF" d="M3.7,7.993c0-2.071-0.002-4.143,0.001-6.214
	C3.703,0.963,4.228,0.243,4.96,0.047C5.097,0.01,5.245,0.003,5.388,0.003C8.06,0.001,10.733,0.006,13.406,0
	c1.521-0.003,2.698,0.674,3.501,1.912c1.237,1.907,1.239,3.887,0.106,5.856c-0.107,0.186-0.101,0.297,0.008,0.473
	c1.31,2.14,1.01,4.867-0.74,6.598C15.517,15.598,14.584,16,13.494,16c-2.662,0-5.324,0-7.985,0c-1.075,0-1.806-0.735-1.808-1.825
	C3.698,12.114,3.7,10.054,3.7,7.993z M9.339,10.095c0,0.267-0.002,0.534,0,0.801c0.004,0.599,0.422,0.999,1.04,1
	c0.645,0.001,1.067-0.394,1.07-1.004c0.002-0.556-0.01-1.112,0.008-1.668c0.003-0.116,0.082-0.275,0.176-0.335
	c0.859-0.551,1.297-1.292,1.299-2.346c0.003-1.394-1.312-2.781-3.118-2.397C8.858,4.35,8.2,4.958,7.953,5.895
	C7.696,6.87,7.814,7.848,8.675,8.484C9.275,8.927,9.481,9.408,9.339,10.095z"/>
</svg>
